<svg width="33" height="30" viewBox="0 0 33 30" fill="none" xmlns="http://www.w3.org/2000/svg">
<g filter="url(#filter0_d_113_53302)">
<path fill-rule="evenodd" clip-rule="evenodd" d="M12.0562 0.205045C12.2397 0.0855748 12.4521 0.0156416 12.6721 0.00233343C12.892 -0.0109747 13.1117 0.0328152 13.3087 0.129265L20.25 3.52224L27.1912 0.129265C27.3818 0.0361718 27.5935 -0.00777429 27.8062 0.00159616C28.019 0.0109666 28.2258 0.073343 28.407 0.182806C28.5882 0.29227 28.7378 0.445189 28.8416 0.627055C28.9454 0.80892 28.9999 1.0137 29 1.22196V15.889C29 16.0902 28.9493 16.2883 28.8522 16.4657C28.7552 16.6431 28.6149 16.7943 28.4438 16.9059L20.9438 21.795C20.7603 21.9144 20.5479 21.9844 20.3279 21.9977C20.108 22.011 19.8883 21.9672 19.6913 21.8707L12.75 18.4778L5.80875 21.8707C5.61822 21.9638 5.40653 22.0078 5.19376 21.9984C4.98098 21.989 4.77419 21.9267 4.59299 21.8172C4.4118 21.7077 4.26221 21.5548 4.15843 21.3729C4.05465 21.1911 4.00011 20.9863 4 20.778V6.11098C3.99997 5.90981 4.05072 5.71174 4.14776 5.53434C4.24479 5.35695 4.3851 5.20572 4.55625 5.09406L12.0562 0.205045ZM7.75 11C7.75 11.3242 7.8817 11.635 8.11612 11.8643C8.35054 12.0935 8.66848 12.2223 9 12.2223C9.33152 12.2223 9.64946 12.0935 9.88388 11.8643C10.1183 11.635 10.25 11.3242 10.25 11C10.25 10.6758 10.1183 10.365 9.88388 10.1357C9.64946 9.90652 9.33152 9.77774 9 9.77774C8.66848 9.77774 8.35054 9.90652 8.11612 10.1357C7.8817 10.365 7.75 10.6758 7.75 11ZM14 12.2223C13.6685 12.2223 13.3505 12.0935 13.1161 11.8643C12.8817 11.635 12.75 11.3242 12.75 11C12.75 10.6758 12.8817 10.365 13.1161 10.1357C13.3505 9.90652 13.6685 9.77774 14 9.77774C14.3315 9.77774 14.6495 9.90652 14.8839 10.1357C15.1183 10.365 15.25 10.6758 15.25 11V11.0012C15.25 11.3254 15.1183 11.6363 14.8839 11.8655C14.6495 12.0947 14.3315 12.2235 14 12.2235V12.2223ZM19.8837 7.69013C19.7684 7.5734 19.6305 7.48028 19.478 7.41622C19.3255 7.35217 19.1615 7.31845 18.9955 7.31704C18.8295 7.31563 18.6649 7.34655 18.5113 7.40801C18.3577 7.46947 18.2181 7.56022 18.1008 7.67498C17.9834 7.78974 17.8906 7.92621 17.8277 8.07642C17.7649 8.22663 17.7332 8.38758 17.7347 8.54987C17.7361 8.71216 17.7706 8.87254 17.8361 9.02166C17.9016 9.17078 17.9969 9.30565 18.1163 9.4184L19.7325 11L18.1163 12.5804C17.8886 12.8109 17.7626 13.1196 17.7654 13.4401C17.7683 13.7606 17.8997 14.0671 18.1315 14.2938C18.3632 14.5204 18.6768 14.6489 19.0045 14.6517C19.3322 14.6545 19.648 14.5313 19.8837 14.3086L21.5 12.7283L23.1162 14.3086C23.352 14.5313 23.6678 14.6545 23.9955 14.6517C24.3232 14.6489 24.6368 14.5204 24.8685 14.2938C25.1003 14.0671 25.2317 13.7606 25.2346 13.4401C25.2374 13.1196 25.1114 12.8109 24.8838 12.5804L23.2675 11L24.8838 9.41962C25.1114 9.1891 25.2374 8.88036 25.2346 8.55989C25.2317 8.23942 25.1003 7.93286 24.8685 7.70624C24.6368 7.47963 24.3232 7.35109 23.9955 7.3483C23.6678 7.34552 23.352 7.46871 23.1162 7.69136L21.5 9.27173L19.8837 7.69136V7.69013Z" fill="#FFE7E0"/>
<path d="M13.2428 0.263995L13.2429 0.264026L20.1841 3.65701L20.25 3.68921L20.3159 3.65701L27.2571 0.264037C27.425 0.181994 27.6118 0.143178 27.7996 0.151451C27.9875 0.159724 28.1699 0.214795 28.3294 0.311197C28.489 0.407586 28.6203 0.542003 28.7113 0.701399C28.8022 0.860771 28.8499 1.03998 28.85 1.22204V15.889C28.85 16.0649 28.8057 16.2382 28.7206 16.3937C28.6356 16.5491 28.5124 16.682 28.3618 16.7803L20.8619 21.6693C20.8619 21.6693 20.8619 21.6693 20.8618 21.6693C20.7004 21.7745 20.5131 21.8362 20.3189 21.8479C20.1247 21.8597 19.9309 21.821 19.7572 21.736L19.7571 21.736L12.8159 18.343L12.75 18.3108L12.6841 18.343L5.7429 21.736C5.74289 21.736 5.74288 21.736 5.74288 21.736C5.57497 21.818 5.38821 21.8568 5.20036 21.8485C5.0125 21.8403 4.83013 21.7852 4.67056 21.6888C4.511 21.5924 4.37967 21.458 4.28871 21.2986C4.19778 21.1393 4.15011 20.9601 4.15 20.778C4.15 20.778 4.15 20.778 4.15 20.778L4.15 6.11098V6.11096C4.14997 5.93508 4.19433 5.76176 4.27936 5.60633C4.36439 5.45087 4.48755 5.31798 4.63821 5.21969L12.1381 0.330732C12.1381 0.330722 12.1381 0.330713 12.1382 0.330704C12.2996 0.225537 12.4869 0.163808 12.6811 0.15206C12.8753 0.14031 13.0691 0.178992 13.2428 0.263995ZM13.0112 11.9715C13.2383 12.1935 13.5348 12.3311 13.85 12.3644V12.3735H14C14.3702 12.3735 14.726 12.2297 14.9888 11.9727C15.2517 11.7157 15.4 11.3663 15.4 11.0012V11C15.4 10.635 15.2517 10.2856 14.9888 10.0285C14.726 9.77152 14.3702 9.62774 14 9.62774C13.6298 9.62774 13.274 9.77152 13.0112 10.0285C12.7483 10.2856 12.6 10.635 12.6 11C12.6 11.365 12.7483 11.7144 13.0112 11.9715ZM20.0249 7.61961L19.9905 7.58472C19.8612 7.45381 19.7067 7.34957 19.5361 7.27793C19.3655 7.20629 19.1822 7.16862 18.9968 7.16705C18.8114 7.16547 18.6274 7.20001 18.4556 7.26874C18.2838 7.33747 18.1275 7.43906 17.9959 7.56773C17.8643 7.69642 17.76 7.84963 17.6893 8.01852C17.6187 8.18742 17.5831 8.36852 17.5847 8.5512C17.5863 8.73389 17.6251 8.91434 17.6988 9.082C17.7723 9.24924 17.8789 9.40031 18.0123 9.52654L19.518 11L18.0114 12.4731L18.0114 12.4731L18.0095 12.475C17.7541 12.7335 17.6122 13.0806 17.6154 13.4414C17.6186 13.8023 17.7667 14.1468 18.0266 14.401C18.2864 14.6551 18.6372 14.7986 19.0032 14.8017C19.3692 14.8048 19.7225 14.6673 19.9867 14.4177L19.9868 14.4177L19.9886 14.4159L21.5 12.9381L23.0114 14.4159L23.0114 14.4159L23.0133 14.4177C23.2775 14.6673 23.6308 14.8048 23.9968 14.8017C24.3628 14.7986 24.7136 14.6551 24.9734 14.401C25.2333 14.1468 25.3814 13.8023 25.3846 13.4414C25.3878 13.0806 25.2459 12.7335 24.9905 12.475L24.9905 12.4749L24.9886 12.4731L23.4821 11L24.9886 9.52687L24.9886 9.52689L24.9905 9.52503C25.2459 9.26646 25.3878 8.91944 25.3846 8.55856C25.3814 8.19767 25.2333 7.85315 24.9734 7.59899C24.7136 7.34495 24.3628 7.20142 23.9968 7.19831C23.6308 7.1952 23.2775 7.33274 23.0133 7.5823L23.0132 7.58228L23.0114 7.58411L21.5 9.06194L20.0249 7.61961ZM7.6 11C7.6 11.365 7.74834 11.7144 8.01125 11.9715C8.27404 12.2285 8.62977 12.3723 9 12.3723C9.37023 12.3723 9.72596 12.2285 9.98875 11.9715C10.2517 11.7144 10.4 11.365 10.4 11C10.4 10.635 10.2517 10.2856 9.98875 10.0285C9.72596 9.77152 9.37023 9.62774 9 9.62774C8.62977 9.62774 8.27404 9.77152 8.01125 10.0285C7.74834 10.2856 7.6 10.635 7.6 11Z" stroke="#C26A6A" stroke-width="0.3"/>
</g>
<defs>
<filter id="filter0_d_113_53302" x="0" y="0" width="33" height="30" filterUnits="userSpaceOnUse" color-interpolation-filters="sRGB">
<feFlood flood-opacity="0" result="BackgroundImageFix"/>
<feColorMatrix in="SourceAlpha" type="matrix" values="0 0 0 0 0 0 0 0 0 0 0 0 0 0 0 0 0 0 127 0" result="hardAlpha"/>
<feOffset dy="4"/>
<feGaussianBlur stdDeviation="2"/>
<feComposite in2="hardAlpha" operator="out"/>
<feColorMatrix type="matrix" values="0 0 0 0 0 0 0 0 0 0 0 0 0 0 0 0 0 0 0.25 0"/>
<feBlend mode="normal" in2="BackgroundImageFix" result="effect1_dropShadow_113_53302"/>
<feBlend mode="normal" in="SourceGraphic" in2="effect1_dropShadow_113_53302" result="shape"/>
</filter>
</defs>
</svg>
